Title                            : Paul
Year                             : 2011
Genre                            : Adventure | Comedy | Sci-Fi
iMDB URL                         : http://www.imdb.com/title/tt1092026/

Complete name                    : Paul.2011.BRRIP.720P.H264-ZEKTORM.mp4
Format                           : MPEG-4
Format profile                   : Base Media
Codec ID                         : isom
File size                        : 2.15 GiB
Duration                         : 1h 49mn (Extended)
Overall bit rate                 : 2813 Kbps
Subtitles                        : English (Format: srt)

Video
ID                               : 1
Format                           : AVC
Format/Info                      : Advanced Video Codec
Format profile                   : High@L4.0
Format settings, CABAC           : Yes
Format settings, ReFrames        : 12 frames
Codec ID                         : avc1
Codec ID/Info                    : Advanced Video Coding
Duration                         : 1h 49mn
Bit rate mode                    : Variable
Bit rate                         : 2589 Kbps
Width                            : 1280 pixels
Height                           : 544 pixels
Display aspect ratio             : 2.35
Frame rate mode                  : Constant
Frame rate                       : 23.976 fps
Resolution                       : 24 bits
Colorimetry                      : 4:2:0
Scan type                        : Progressive
Bits/(Pixel*Frame)               : 0.155
Stream size                      : 1.98 GiB (92%)
Title                            : Video
Writing library                  : x264

Audio
ID                               : 2
Format                           : AAC
Format/Info                      : Advanced Audio Codec
Format version                   : Version 4
Format profile                   : LC
Format settings, SBR             : Yes
Format settings, PS              : No
Codec ID                         : 40
Duration                         : 1h 49mn
Bit rate mode                    : Variable
Bit rate                         : 222 Kbps
Maximum bit rate                 : 263 Kbps
Channel(s)                       : 6 channels
Channel positions                : Front: L C R, Rear: L R, LFE
Sampling rate                    : 48.0 KHz
Resolution                       : 16 bits
Stream size                      : 174 MiB (8%)
Title                            : English
Language                         : English


Screenshots:

[img]http://img204.imageshack.us/img204/4997/snapp1.png[/img]

[img]http://img41.imageshack.us/img41/8869/snapp2.png[/img]

[img]http://img820.imageshack.us/img820/641/snapp3.png[/img]

[img]http://img10.imageshack.us/img10/1019/snapp4.png[/img]
